<?xml version="1.0" encoding="utf-8"?>
<!-- Generator: Adobe Illustrator 21.1.0, SVG Export Plug-In . SVG Version: 6.00 Build 0)  -->
<svg version="1.1" id="Layer_1" xmlns="http://www.w3.org/2000/svg" xmlns:xlink="http://www.w3.org/1999/xlink" x="0px" y="0px"
	 viewBox="0 0 50 88" style="enable-background:new 0 0 50 88;" xml:space="preserve">
<style type="text/css">
	.st0{fill:#FFFFFF;}
</style>
<g>
	<path class="st0" d="M47.5,17.1c-2.9-8-9.6-13.7-18-15.3c-3.1-0.6-6.1-0.6-9.2,0c-8.4,1.6-15.1,7.3-18,15.3
		c-3,8.2-1.4,17.1,4.2,23.9L25,61.7L43.3,41l0.1-0.1C48.9,34.2,50.5,25.3,47.5,17.1z M25,32.3c-4.7,0-8.6-3.7-8.6-8.2
		c0-4.5,3.9-8.2,8.6-8.2c4.8,0,8.6,3.7,8.6,8.2C33.6,28.6,29.7,32.3,25,32.3z M25,86.6c-4.7,0-8.6-3.7-8.6-8.2
		c0-4.5,3.9-8.2,8.6-8.2c4.8,0,8.6,3.7,8.6,8.2C33.6,83,29.7,86.6,25,86.6z"/>
</g>
</svg>
